<svg xmlns="http://www.w3.org/2000/svg" viewBox="0 0 153.85 128.93"><defs><style>.cls-1{fill:#fa991c;}.cls-2{fill:#fff;}</style></defs><g id="Layer_2" data-name="Layer 2"><g id="Layer_6" data-name="Layer 6"><circle class="cls-1" cx="80.91" cy="31.16" r="0.81"/><circle class="cls-1" cx="87.47" cy="31.16" r="0.81"/><circle class="cls-1" cx="94.02" cy="31.16" r="0.81"/><circle class="cls-1" cx="100.58" cy="31.16" r="0.81"/><circle class="cls-1" cx="133.37" cy="31.16" r="0.81"/><circle class="cls-1" cx="139.92" cy="31.16" r="0.81"/><circle class="cls-1" cx="146.48" cy="31.16" r="0.81"/><circle class="cls-1" cx="153.04" cy="31.16" r="0.81"/><circle class="cls-1" cx="54.68" cy="31.16" r="0.81"/><circle class="cls-1" cx="61.24" cy="31.16" r="0.81"/><circle class="cls-1" cx="67.79" cy="31.16" r="0.81"/><circle class="cls-1" cx="74.35" cy="31.16" r="0.81"/><circle class="cls-1" cx="107.14" cy="31.16" r="0.81"/><circle class="cls-1" cx="113.7" cy="31.16" r="0.81"/><circle class="cls-1" cx="120.25" cy="31.16" r="0.81"/><circle class="cls-1" cx="126.81" cy="31.16" r="0.81"/><circle class="cls-1" cx="80.91" cy="36.87" r="0.81"/><circle class="cls-1" cx="87.47" cy="36.87" r="0.81"/><circle class="cls-1" cx="94.02" cy="36.87" r="0.81"/><circle class="cls-1" cx="100.58" cy="36.87" r="0.81"/><circle class="cls-1" cx="133.37" cy="36.87" r="0.81"/><circle class="cls-1" cx="139.92" cy="36.87" r="0.81"/><circle class="cls-1" cx="146.48" cy="36.87" r="0.81"/><circle class="cls-1" cx="153.04" cy="36.87" r="0.81"/><circle class="cls-1" cx="54.68" cy="36.87" r="0.81"/><circle class="cls-1" cx="61.24" cy="36.87" r="0.81"/><circle class="cls-1" cx="67.79" cy="36.87" r="0.81"/><circle class="cls-1" cx="74.35" cy="36.87" r="0.81"/><circle class="cls-1" cx="107.14" cy="36.87" r="0.81"/><circle class="cls-1" cx="113.7" cy="36.87" r="0.81"/><circle class="cls-1" cx="120.25" cy="36.87" r="0.81"/><circle class="cls-1" cx="126.81" cy="36.87" r="0.81"/><circle class="cls-1" cx="80.91" cy="42.57" r="0.81"/><circle class="cls-1" cx="87.47" cy="42.57" r="0.81"/><circle class="cls-1" cx="94.02" cy="42.57" r="0.81"/><circle class="cls-1" cx="100.58" cy="42.57" r="0.81"/><circle class="cls-1" cx="133.37" cy="42.57" r="0.81"/><circle class="cls-1" cx="139.92" cy="42.57" r="0.81"/><circle class="cls-1" cx="146.48" cy="42.57" r="0.81"/><circle class="cls-1" cx="153.04" cy="42.57" r="0.81"/><circle class="cls-1" cx="54.68" cy="42.57" r="0.81"/><circle class="cls-1" cx="61.24" cy="42.57" r="0.81"/><circle class="cls-1" cx="67.79" cy="42.57" r="0.81"/><circle class="cls-1" cx="74.35" cy="42.57" r="0.81"/><circle class="cls-1" cx="107.14" cy="42.57" r="0.81"/><circle class="cls-1" cx="113.7" cy="42.57" r="0.81"/><circle class="cls-1" cx="120.25" cy="42.57" r="0.81"/><circle class="cls-1" cx="126.81" cy="42.57" r="0.81"/><circle class="cls-1" cx="80.91" cy="48.28" r="0.81"/><circle class="cls-1" cx="87.47" cy="48.28" r="0.81"/><circle class="cls-1" cx="94.02" cy="48.28" r="0.81"/><circle class="cls-1" cx="100.58" cy="48.28" r="0.81"/><circle class="cls-1" cx="133.37" cy="48.28" r="0.81"/><circle class="cls-1" cx="139.92" cy="48.28" r="0.81"/><circle class="cls-1" cx="146.48" cy="48.28" r="0.81"/><circle class="cls-1" cx="153.04" cy="48.28" r="0.81"/><circle class="cls-1" cx="54.68" cy="48.28" r="0.81"/><circle class="cls-1" cx="61.24" cy="48.28" r="0.81"/><circle class="cls-1" cx="67.79" cy="48.28" r="0.81"/><circle class="cls-1" cx="74.35" cy="48.28" r="0.81"/><circle class="cls-1" cx="107.14" cy="48.28" r="0.81"/><circle class="cls-1" cx="113.7" cy="48.28" r="0.81"/><circle class="cls-1" cx="120.25" cy="48.28" r="0.81"/><circle class="cls-1" cx="126.81" cy="48.28" r="0.81"/><circle class="cls-1" cx="80.91" cy="53.98" r="0.81"/><circle class="cls-1" cx="87.47" cy="53.98" r="0.81"/><circle class="cls-1" cx="94.02" cy="53.98" r="0.81"/><circle class="cls-1" cx="100.58" cy="53.98" r="0.81"/><circle class="cls-1" cx="133.37" cy="53.98" r="0.81"/><circle class="cls-1" cx="139.92" cy="53.98" r="0.81"/><circle class="cls-1" cx="146.48" cy="53.98" r="0.81"/><circle class="cls-1" cx="153.04" cy="53.98" r="0.81"/><circle class="cls-1" cx="54.68" cy="53.98" r="0.81"/><circle class="cls-1" cx="61.24" cy="53.98" r="0.81"/><circle class="cls-1" cx="67.79" cy="53.98" r="0.81"/><circle class="cls-1" cx="74.35" cy="53.98" r="0.81"/><circle class="cls-1" cx="107.14" cy="53.98" r="0.81"/><circle class="cls-1" cx="113.7" cy="53.98" r="0.81"/><circle class="cls-1" cx="120.25" cy="53.98" r="0.81"/><circle class="cls-1" cx="126.81" cy="53.98" r="0.81"/><circle class="cls-1" cx="80.91" cy="59.69" r="0.81"/><circle class="cls-1" cx="87.47" cy="59.69" r="0.81"/><circle class="cls-1" cx="94.02" cy="59.69" r="0.81"/><circle class="cls-1" cx="100.58" cy="59.69" r="0.81"/><circle class="cls-1" cx="133.37" cy="59.69" r="0.81"/><circle class="cls-1" cx="139.92" cy="59.69" r="0.81"/><circle class="cls-1" cx="146.48" cy="59.69" r="0.81"/><circle class="cls-1" cx="153.04" cy="59.69" r="0.81"/><circle class="cls-1" cx="54.68" cy="59.69" r="0.81"/><circle class="cls-1" cx="61.24" cy="59.69" r="0.81"/><circle class="cls-1" cx="67.79" cy="59.69" r="0.81"/><circle class="cls-1" cx="74.35" cy="59.69" r="0.81"/><circle class="cls-1" cx="107.14" cy="59.69" r="0.81"/><circle class="cls-1" cx="113.7" cy="59.69" r="0.81"/><circle class="cls-1" cx="120.25" cy="59.69" r="0.81"/><circle class="cls-1" cx="126.81" cy="59.69" r="0.81"/><circle class="cls-1" cx="80.91" cy="65.39" r="0.81"/><circle class="cls-1" cx="87.47" cy="65.39" r="0.81"/><circle class="cls-1" cx="94.02" cy="65.39" r="0.81"/><circle class="cls-1" cx="100.58" cy="65.39" r="0.81"/><circle class="cls-1" cx="133.37" cy="65.39" r="0.81"/><circle class="cls-1" cx="139.92" cy="65.39" r="0.81"/><circle class="cls-1" cx="146.48" cy="65.39" r="0.81"/><circle class="cls-1" cx="153.04" cy="65.39" r="0.81"/><circle class="cls-1" cx="54.68" cy="65.39" r="0.81"/><circle class="cls-1" cx="61.24" cy="65.39" r="0.81"/><circle class="cls-1" cx="67.79" cy="65.39" r="0.81"/><circle class="cls-1" cx="74.35" cy="65.39" r="0.81"/><circle class="cls-1" cx="107.14" cy="65.39" r="0.81"/><circle class="cls-1" cx="113.7" cy="65.39" r="0.81"/><circle class="cls-1" cx="120.25" cy="65.39" r="0.81"/><circle class="cls-1" cx="126.81" cy="65.39" r="0.81"/><circle class="cls-1" cx="80.91" cy="71.1" r="0.81"/><circle class="cls-1" cx="87.47" cy="71.1" r="0.81"/><circle class="cls-1" cx="94.02" cy="71.1" r="0.81"/><circle class="cls-1" cx="100.58" cy="71.1" r="0.81"/><circle class="cls-1" cx="133.37" cy="71.1" r="0.81"/><circle class="cls-1" cx="139.92" cy="71.1" r="0.81"/><circle class="cls-1" cx="146.48" cy="71.1" r="0.81"/><circle class="cls-1" cx="153.04" cy="71.1" r="0.81"/><circle class="cls-1" cx="54.68" cy="71.1" r="0.81"/><circle class="cls-1" cx="61.24" cy="71.1" r="0.81"/><circle class="cls-1" cx="67.79" cy="71.1" r="0.81"/><circle class="cls-1" cx="74.35" cy="71.1" r="0.81"/><circle class="cls-1" cx="107.14" cy="71.1" r="0.81"/><circle class="cls-1" cx="113.7" cy="71.1" r="0.81"/><circle class="cls-1" cx="120.25" cy="71.1" r="0.81"/><circle class="cls-1" cx="126.81" cy="71.1" r="0.81"/><circle class="cls-1" cx="80.91" cy="76.8" r="0.81"/><circle class="cls-1" cx="87.47" cy="76.8" r="0.81"/><circle class="cls-1" cx="94.02" cy="76.8" r="0.81"/><circle class="cls-1" cx="100.58" cy="76.8" r="0.81"/><circle class="cls-1" cx="133.37" cy="76.8" r="0.81"/><circle class="cls-1" cx="139.92" cy="76.8" r="0.81"/><circle class="cls-1" cx="146.48" cy="76.8" r="0.81"/><circle class="cls-1" cx="153.04" cy="76.8" r="0.81"/><circle class="cls-1" cx="54.68" cy="76.8" r="0.81"/><circle class="cls-1" cx="61.24" cy="76.8" r="0.81"/><circle class="cls-1" cx="67.79" cy="76.8" r="0.81"/><circle class="cls-1" cx="74.35" cy="76.8" r="0.81"/><circle class="cls-1" cx="107.14" cy="76.8" r="0.81"/><circle class="cls-1" cx="113.7" cy="76.8" r="0.81"/><circle class="cls-1" cx="120.25" cy="76.8" r="0.81"/><circle class="cls-1" cx="126.81" cy="76.8" r="0.81"/><circle class="cls-1" cx="80.91" cy="82.51" r="0.81"/><circle class="cls-1" cx="87.47" cy="82.51" r="0.81"/><circle class="cls-1" cx="94.02" cy="82.51" r="0.81"/><circle class="cls-1" cx="100.58" cy="82.51" r="0.81"/><circle class="cls-1" cx="133.37" cy="82.51" r="0.81"/><circle class="cls-1" cx="139.92" cy="82.51" r="0.81"/><circle class="cls-1" cx="146.48" cy="82.51" r="0.81"/><circle class="cls-1" cx="153.04" cy="82.51" r="0.81"/><circle class="cls-1" cx="54.68" cy="82.51" r="0.81"/><circle class="cls-1" cx="61.24" cy="82.51" r="0.81"/><circle class="cls-1" cx="67.79" cy="82.51" r="0.81"/><circle class="cls-1" cx="74.35" cy="82.51" r="0.81"/><circle class="cls-1" cx="107.14" cy="82.51" r="0.81"/><circle class="cls-1" cx="113.7" cy="82.51" r="0.81"/><circle class="cls-1" cx="120.25" cy="82.51" r="0.81"/><circle class="cls-1" cx="126.81" cy="82.51" r="0.81"/><circle class="cls-1" cx="80.91" cy="88.21" r="0.81"/><circle class="cls-1" cx="87.47" cy="88.21" r="0.81"/><circle class="cls-1" cx="94.02" cy="88.21" r="0.81"/><circle class="cls-1" cx="100.58" cy="88.21" r="0.81"/><circle class="cls-1" cx="133.37" cy="88.21" r="0.81"/><circle class="cls-1" cx="139.92" cy="88.21" r="0.81"/><circle class="cls-1" cx="146.48" cy="88.21" r="0.81"/><circle class="cls-1" cx="153.04" cy="88.21" r="0.81"/><circle class="cls-1" cx="54.68" cy="88.21" r="0.81"/><circle class="cls-1" cx="61.24" cy="88.21" r="0.81"/><circle class="cls-1" cx="67.79" cy="88.21" r="0.81"/><circle class="cls-1" cx="74.35" cy="88.21" r="0.81"/><circle class="cls-1" cx="107.14" cy="88.21" r="0.81"/><circle class="cls-1" cx="113.7" cy="88.21" r="0.81"/><circle class="cls-1" cx="120.25" cy="88.21" r="0.81"/><circle class="cls-1" cx="126.81" cy="88.21" r="0.81"/><circle class="cls-1" cx="80.91" cy="93.92" r="0.81"/><circle class="cls-1" cx="87.47" cy="93.92" r="0.81"/><circle class="cls-1" cx="94.02" cy="93.92" r="0.81"/><circle class="cls-1" cx="100.58" cy="93.92" r="0.81"/><circle class="cls-1" cx="133.37" cy="93.92" r="0.81"/><circle class="cls-1" cx="139.92" cy="93.92" r="0.81"/><circle class="cls-1" cx="146.48" cy="93.92" r="0.81"/><circle class="cls-1" cx="153.04" cy="93.92" r="0.81"/><circle class="cls-1" cx="54.68" cy="93.92" r="0.81"/><circle class="cls-1" cx="61.24" cy="93.92" r="0.81"/><circle class="cls-1" cx="67.79" cy="93.92" r="0.81"/><circle class="cls-1" cx="74.35" cy="93.92" r="0.81"/><circle class="cls-1" cx="107.14" cy="93.92" r="0.81"/><circle class="cls-1" cx="113.7" cy="93.92" r="0.81"/><circle class="cls-1" cx="120.25" cy="93.92" r="0.81"/><circle class="cls-1" cx="126.81" cy="93.92" r="0.81"/><circle class="cls-1" cx="80.91" cy="99.62" r="0.81"/><circle class="cls-1" cx="87.47" cy="99.62" r="0.81"/><circle class="cls-1" cx="94.02" cy="99.62" r="0.81"/><circle class="cls-1" cx="100.58" cy="99.62" r="0.81"/><circle class="cls-1" cx="133.37" cy="99.62" r="0.81"/><circle class="cls-1" cx="139.92" cy="99.62" r="0.81"/><circle class="cls-1" cx="146.48" cy="99.62" r="0.81"/><circle class="cls-1" cx="153.04" cy="99.62" r="0.81"/><circle class="cls-1" cx="54.68" cy="99.62" r="0.81"/><circle class="cls-1" cx="61.24" cy="99.62" r="0.81"/><circle class="cls-1" cx="67.79" cy="99.62" r="0.81"/><circle class="cls-1" cx="74.35" cy="99.62" r="0.81"/><circle class="cls-1" cx="107.14" cy="99.62" r="0.81"/><circle class="cls-1" cx="113.7" cy="99.62" r="0.81"/><circle class="cls-1" cx="120.25" cy="99.62" r="0.81"/><circle class="cls-1" cx="126.81" cy="99.62" r="0.81"/><circle class="cls-1" cx="80.91" cy="105.33" r="0.81"/><circle class="cls-1" cx="87.47" cy="105.33" r="0.81"/><circle class="cls-1" cx="94.02" cy="105.33" r="0.81"/><circle class="cls-1" cx="100.58" cy="105.33" r="0.81"/><circle class="cls-1" cx="133.37" cy="105.33" r="0.81"/><circle class="cls-1" cx="139.92" cy="105.33" r="0.81"/><circle class="cls-1" cx="146.48" cy="105.33" r="0.81"/><circle class="cls-1" cx="153.04" cy="105.33" r="0.81"/><circle class="cls-1" cx="54.68" cy="105.33" r="0.81"/><circle class="cls-1" cx="61.24" cy="105.33" r="0.81"/><circle class="cls-1" cx="67.79" cy="105.33" r="0.81"/><circle class="cls-1" cx="74.35" cy="105.33" r="0.81"/><circle class="cls-1" cx="107.14" cy="105.33" r="0.81"/><circle class="cls-1" cx="113.7" cy="105.33" r="0.81"/><circle class="cls-1" cx="120.25" cy="105.33" r="0.81"/><circle class="cls-1" cx="126.81" cy="105.33" r="0.81"/><circle class="cls-1" cx="80.91" cy="111.03" r="0.81"/><circle class="cls-1" cx="87.47" cy="111.03" r="0.81"/><circle class="cls-1" cx="94.02" cy="111.03" r="0.81"/><circle class="cls-1" cx="100.58" cy="111.03" r="0.81"/><circle class="cls-1" cx="133.37" cy="111.03" r="0.81"/><circle class="cls-1" cx="139.92" cy="111.03" r="0.81"/><circle class="cls-1" cx="146.48" cy="111.03" r="0.81"/><circle class="cls-1" cx="153.04" cy="111.03" r="0.81"/><circle class="cls-1" cx="54.68" cy="111.03" r="0.81"/><circle class="cls-1" cx="61.24" cy="111.03" r="0.81"/><circle class="cls-1" cx="67.79" cy="111.03" r="0.81"/><circle class="cls-1" cx="74.35" cy="111.03" r="0.81"/><circle class="cls-1" cx="107.14" cy="111.03" r="0.81"/><circle class="cls-1" cx="113.7" cy="111.03" r="0.81"/><circle class="cls-1" cx="120.25" cy="111.03" r="0.81"/><circle class="cls-1" cx="126.81" cy="111.03" r="0.81"/><circle class="cls-1" cx="80.91" cy="116.74" r="0.81"/><circle class="cls-1" cx="87.47" cy="116.74" r="0.81"/><circle class="cls-1" cx="94.02" cy="116.74" r="0.81"/><circle class="cls-1" cx="100.58" cy="116.74" r="0.81"/><circle class="cls-1" cx="133.37" cy="116.74" r="0.81"/><circle class="cls-1" cx="139.92" cy="116.74" r="0.81"/><circle class="cls-1" cx="146.48" cy="116.74" r="0.81"/><circle class="cls-1" cx="153.04" cy="116.74" r="0.81"/><circle class="cls-1" cx="54.68" cy="116.74" r="0.81"/><circle class="cls-1" cx="61.24" cy="116.74" r="0.81"/><circle class="cls-1" cx="67.79" cy="116.74" r="0.81"/><circle class="cls-1" cx="74.35" cy="116.74" r="0.81"/><circle class="cls-1" cx="107.14" cy="116.74" r="0.81"/><circle class="cls-1" cx="113.7" cy="116.74" r="0.81"/><circle class="cls-1" cx="120.25" cy="116.74" r="0.81"/><circle class="cls-1" cx="126.81" cy="116.74" r="0.81"/><circle class="cls-1" cx="80.91" cy="122.44" r="0.81"/><circle class="cls-1" cx="87.47" cy="122.44" r="0.81"/><circle class="cls-1" cx="94.02" cy="122.44" r="0.81"/><circle class="cls-1" cx="100.58" cy="122.44" r="0.81"/><circle class="cls-1" cx="133.37" cy="122.44" r="0.81"/><circle class="cls-1" cx="139.92" cy="122.44" r="0.81"/><circle class="cls-1" cx="146.48" cy="122.44" r="0.81"/><circle class="cls-1" cx="153.04" cy="122.44" r="0.81"/><circle class="cls-1" cx="54.68" cy="122.44" r="0.81"/><circle class="cls-1" cx="61.24" cy="122.44" r="0.81"/><circle class="cls-1" cx="67.79" cy="122.44" r="0.81"/><circle class="cls-1" cx="74.35" cy="122.44" r="0.81"/><circle class="cls-1" cx="107.14" cy="122.44" r="0.81"/><circle class="cls-1" cx="113.7" cy="122.44" r="0.81"/><circle class="cls-1" cx="120.25" cy="122.44" r="0.81"/><circle class="cls-1" cx="126.81" cy="122.44" r="0.81"/><path class="cls-2" d="M131.28,105,4.61,128.93A4.6,4.6,0,0,1,0,124.33V28.55A4.6,4.6,0,0,1,4.61,24L131.28,0a4.6,4.6,0,0,1,4.61,4.61v95.77A4.6,4.6,0,0,1,131.28,105Z"/><path class="cls-1" d="M68,87.25A23.73,23.73,0,1,1,91.72,63.53,23.75,23.75,0,0,1,68,87.25ZM68,42.8A20.73,20.73,0,1,0,88.72,63.53,20.75,20.75,0,0,0,68,42.8Z"/><path class="cls-1" d="M68,81.14A17.62,17.62,0,1,1,85.61,63.53,17.64,17.64,0,0,1,68,81.14Zm0-32.23A14.62,14.62,0,1,0,82.61,63.53,14.64,14.64,0,0,0,68,48.91Z"/><path class="cls-1" d="M35.37,89a1.5,1.5,0,0,1-1.5-1.5v-29a1.5,1.5,0,0,1,3,0v29A1.5,1.5,0,0,1,35.37,89Z"/><path class="cls-1" d="M36,59.91h-1.5A5.45,5.45,0,0,1,29,54.47V46a1.5,1.5,0,0,1,3,0v8.48a2.45,2.45,0,0,0,2.44,2.44H36a2.45,2.45,0,0,0,2.44-2.44V46a1.5,1.5,0,1,1,3,0v8.48A5.45,5.45,0,0,1,36,59.91Z"/><path class="cls-1" d="M35.35,59.91a1.5,1.5,0,0,1-1.5-1.49l-.12-11a1.5,1.5,0,0,1,1.48-1.52h0a1.5,1.5,0,0,1,1.5,1.49l.12,11a1.5,1.5,0,0,1-1.48,1.52Z"/><path class="cls-1" d="M100.8,89a1.5,1.5,0,0,1-1.5-1.5V60.35a1.5,1.5,0,0,1,3,0V87.54A1.5,1.5,0,0,1,100.8,89Z"/><path class="cls-1" d="M100.8,61.86c-4,0-7.28-3.93-7.28-8.77s3.27-8.77,7.28-8.77,7.29,3.94,7.29,8.77S104.82,61.86,100.8,61.86Zm0-14.54c-2.36,0-4.28,2.59-4.28,5.77s1.92,5.77,4.28,5.77,4.29-2.59,4.29-5.77S103.17,47.32,100.8,47.32Z"/></g></g></svg>