<svg xmlns="http://www.w3.org/2000/svg" viewBox="0 0 370.54 171.94"><defs><style>.cls-1{fill:#fff;}</style></defs><g id="Layer_2" data-name="Layer 2"><g id="elements"><path class="cls-1" d="M323.72,110.9a2,2,0,0,0-2.28-1.76l-6.91.9c-8.39,1.09-11.53-2.69-18.43-12.13-3.49-4.77-7.48-10.22-13-14.86,6.58-4.13,10-10.86,10-20.15V28.74c0-13.16-7-18.92-20.16-16.6l-35.14,6.19A2.54,2.54,0,0,0,235.6,21V128.49a1.7,1.7,0,0,0,2.24,1.84l14.55-2.57a2.53,2.53,0,0,0,2.25-2.63V90.4c14.42,1.06,20.32,9.1,26.93,18.14,6.48,8.86,14.41,19.69,30.3,19.69a38,38,0,0,0,5-.34l7-.9a2,2,0,0,0,1.71-2.23ZM254.64,33.85l13.86-2.44c3.64-.65,5.6,1,5.6,4.61V62.34c0,3.64-2,5.94-5.6,6.59l-13.86,2.44Z"/><path class="cls-1" d="M153.62,33.44c1.82-.33,2.8.48,2.8,2.3v106.4a3.08,3.08,0,0,1-2.8,3.29l-13,2.3c-1.82.32-2.8-.49-2.8-2.31v-63l-1,.18L124,130.32a3.61,3.61,0,0,1-3.08,3.06L112,134.59a2.38,2.38,0,0,1-3.08-2L96.08,89.78l-1,.17v63a3.09,3.09,0,0,1-2.8,3.3l-12.88,2.27c-1.82.32-2.8-.49-2.8-2.31V49.81a3.08,3.08,0,0,1,2.8-3.29L97.9,43.26a2.39,2.39,0,0,1,3.08,2l15.54,60,15.54-65.46a3.64,3.64,0,0,1,3.08-3.07Z"/><path class="cls-1" d="M70.82,157.36,47.58,53.8a1.79,1.79,0,0,0-2.38-1.54L25.74,55.69a2.71,2.71,0,0,0-2.38,2.38L.12,169.83c-.42,1.61.28,2.33,1.82,2.06l15-2.65a2.68,2.68,0,0,0,2.24-2.35l3.78-21.11.15-.7c2.63-1.61,6.59-3.59,13.85-5a74.8,74.8,0,0,1,10.33-1.36l.59,2.67,3.92,19.75A1.76,1.76,0,0,0,54,162.7l14.84-2.61C70.54,159.79,71.1,158.85,70.82,157.36Zm-37.29-35c-2.27.44-4.32.93-6.19,1.46L35.4,78.49,43.45,121A98.31,98.31,0,0,0,33.53,122.41Z"/><path class="cls-1" d="M370.47,105.16,347.23,1.6A1.79,1.79,0,0,0,344.85.06L325.39,3.49A2.71,2.71,0,0,0,323,5.87L303.54,99.48a14,14,0,0,0,7.31,5.24c4.62,1.19,9.84-.52,9.84-.52l1.9-10.62.18-.85c2.62-1.6,6.57-3.54,13.73-4.92a73.36,73.36,0,0,1,10.4-1.37l.61,2.75,3.92,19.75a1.76,1.76,0,0,0,2.24,1.56l14.84-2.62C370.19,107.59,370.75,106.65,370.47,105.16Zm-37.39-35c-2.22.43-4.23.92-6.07,1.43l8-45.28,8,42.4C340.29,68.93,337,69.38,333.08,70.13Z"/><path class="cls-1" d="M225.17,41.52c.47-13.09-6.37-18.84-19.69-16.56l-17.89,2.71c-13.33,2.27-20.66,10.44-21.13,23.53l.39,71.29c-.47,13.08,6.37,18.84,19.69,16.56l17.89-2.71c13.33-2.27,20.66-10.44,21.13-23.53ZM179.75,90.47c-5-23.25,7.79-38.69,16.17-48.34-1.45,13.13,5.68,21.69,10,32.43,3.45,8.71,6.08,19.54,1.18,33.81-20-12.76-18.9-29.51-16.93-43.07-6.1,11.3-3.62,28.9,5.21,50C189.85,111.46,182.68,104,179.75,90.47Zm26.14,29c-2.3-1.65-9.13-9.79-10.2-16.06,2.77,6.31,9.67,11.35,13.51,12.2S208.19,121.14,205.89,119.49Z"/></g></g></svg>