<svg xmlns="http://www.w3.org/2000/svg" viewBox="0 0 371.3 229.38"><defs><style>.cls-1{fill:#fff;}</style></defs><g id="Layer_2" data-name="Layer 2"><g id="elements"><path class="cls-1" d="M2.17,204.83a.56.56,0,0,1,.51-.59l7.54-1.33c2.95-.52,4.52.77,4.52,3.72v7.67a5,5,0,0,1-4.52,5.32l-3.77.67v7.91a.56.56,0,0,1-.51.6l-3.26.57a.38.38,0,0,1-.51-.41Zm7,10.82a1.38,1.38,0,0,0,1.26-1.48v-5.9c0-.82-.41-1.19-1.26-1l-2.76.49v8.42Z"/><path class="cls-1" d="M22.15,221.79l7.48-1.32c.35-.06.5.1.5.42V224a.53.53,0,0,1-.5.59l-11.25,2c-.31.06-.5-.07-.5-.41V202.06a.56.56,0,0,1,.5-.59l3.27-.58c.35-.06.5.1.5.41Z"/><path class="cls-1" d="M44.49,222a.39.39,0,0,1-.5-.35l-.88-4.43-5.59,1-.85,4.74a.62.62,0,0,1-.51.53l-3.36.59c-.34.06-.5-.1-.41-.46l5.22-25.08a.61.61,0,0,1,.53-.54l4.37-.77a.4.4,0,0,1,.53.35l5.22,23.24a.46.46,0,0,1-.44.61Zm-4.18-18.9-2,11.32,4-.71Z"/><path class="cls-1" d="M63.68,193.48a.38.38,0,0,1,.51.41V218a.56.56,0,0,1-.51.59l-3.11.55a.44.44,0,0,1-.56-.31L55.2,206.29l-.16,0v13.33a.55.55,0,0,1-.5.59l-3.26.57a.38.38,0,0,1-.51-.41V196.26a.56.56,0,0,1,.51-.59l3.11-.55a.44.44,0,0,1,.56.31l4.78,12.51.18,0V194.65a.55.55,0,0,1,.51-.59Z"/><path class="cls-1" d="M78.76,190.82c.35-.06.5.1.5.41v3.15a.55.55,0,0,1-.5.59l-3.64.64V216.1a.54.54,0,0,1-.5.59l-3.27.57c-.32.06-.5-.07-.5-.41V196.36L67.2,197a.38.38,0,0,1-.5-.42v-3.14a.57.57,0,0,1,.5-.59Z"/><path class="cls-1" d="M81.78,202.67a.69.69,0,0,1,.63-.74l5-.88c.41-.07.63.11.63.52v2.89a.69.69,0,0,1-.63.74l-5,.88c-.41.07-.63-.11-.63-.52Z"/><path class="cls-1" d="M103.74,196.72a2.84,2.84,0,0,1-2,2.58v.06a1.83,1.83,0,0,1,2,1.89V207c0,2.95-1.61,4.8-4.56,5.33l-7.54,1.32a.38.38,0,0,1-.5-.41V189.14a.54.54,0,0,1,.5-.59l7.54-1.33c2.95-.52,4.56.77,4.56,3.72Zm-4.18-4.16c0-.82-.41-1.19-1.26-1l-2.86.51v6.34l2.86-.5a1.37,1.37,0,0,0,1.26-1.45Zm0,10.49c0-.82-.41-1.18-1.26-1l-2.86.5v6.35l2.86-.51a1.36,1.36,0,0,0,1.26-1.48Z"/><path class="cls-1" d="M118.09,209a.39.39,0,0,1-.5-.35l-.88-4.43-5.59,1-.85,4.74a.61.61,0,0,1-.5.53l-3.36.59c-.35.06-.51-.1-.41-.46l5.21-25.08a.62.62,0,0,1,.54-.54l4.36-.77a.41.41,0,0,1,.54.35l5.21,23.24c.07.34-.06.55-.44.61Zm-4.17-18.9-2,11.32,4-.71Z"/><path class="cls-1" d="M131.79,181.47c3-.52,4.52.77,4.52,3.73v3.33a.55.55,0,0,1-.5.59l-3.27.57a.38.38,0,0,1-.5-.41v-2.45c0-.82-.41-1.18-1.26-1l-1.5.27a1.4,1.4,0,0,0-1.26,1.48v4.34L135.5,193a.93.93,0,0,1,.81,1v7.25a5,5,0,0,1-4.52,5.33l-3.52.62c-2.92.51-4.52-.78-4.52-3.73v-3.3a.54.54,0,0,1,.5-.59l3.27-.58c.34-.06.5.07.5.42v2.42c0,.84.47,1.17,1.26,1l1.5-.26a1.38,1.38,0,0,0,1.26-1.48V197l-7.44-1.14a.91.91,0,0,1-.85-1v-7.42a5,5,0,0,1,4.52-5.32Z"/><path class="cls-1" d="M152,181.55a.57.57,0,0,1-.5.63l-7.86,1.38v6.28l6-1.05c.32-.06.51.1.51.44v3.11a.57.57,0,0,1-.51.62l-6,1.06v6.35l7.86-1.38c.37-.07.5.06.5.41v3.14a.53.53,0,0,1-.5.59l-11.56,2c-.29.05-.47-.1-.47-.42V180.62a.54.54,0,0,1,.47-.58l11.56-2c.37-.07.5.1.5.41Z"/><path class="cls-1" d="M154.82,177.91a.55.55,0,0,1,.5-.59l7.54-1.33c2.95-.52,4.52.81,4.52,3.76V195.8a5,5,0,0,1-4.52,5.33l-7.54,1.33c-.35.06-.5-.07-.5-.42ZM162,197.14a1.38,1.38,0,0,0,1.26-1.48v-14.3c0-.85-.44-1.21-1.26-1.07l-2.89.51v16.84Z"/><path class="cls-1" d="M195.66,170.21c.4-.07.62.11.62.52V194.6a.69.69,0,0,1-.62.74l-2.93.52c-.4.07-.62-.11-.62-.52V181.2l-.22,0L188.78,196a.84.84,0,0,1-.69.69l-1.54.27a.53.53,0,0,1-.69-.44l-3.12-13.66-.21,0V197a.69.69,0,0,1-.63.74l-2.89.51c-.41.07-.63-.11-.63-.52V173.88a.7.7,0,0,1,.63-.74l4.14-.73a.54.54,0,0,1,.69.45l3.49,15,3.49-16.26a.81.81,0,0,1,.69-.69Z"/><path class="cls-1" d="M212,171a.56.56,0,0,1-.5.62L203.6,173v6.28l6-1.06c.32-.05.51.1.51.45v3.11a.58.58,0,0,1-.51.62l-6,1.06v6.35l7.86-1.39c.37-.07.5.07.5.42V192a.54.54,0,0,1-.5.59l-11.56,2c-.29.05-.47-.11-.47-.42V170.05a.55.55,0,0,1,.47-.59l11.56-2c.37-.06.5.1.5.42Z"/><path class="cls-1" d="M226,190a.39.39,0,0,1-.5-.35l-.88-4.44-5.59,1-.85,4.74a.61.61,0,0,1-.5.53l-3.36.59c-.35.06-.51-.1-.41-.46l5.21-25.08a.61.61,0,0,1,.54-.54l4.36-.77a.41.41,0,0,1,.54.35l5.21,23.24a.47.47,0,0,1-.44.61Zm-4.18-18.9-2,11.32,4-.71Z"/><path class="cls-1" d="M236.84,183.94l7.48-1.32c.34-.06.5.1.5.41v3.14a.53.53,0,0,1-.5.59l-11.25,2c-.31.05-.5-.07-.5-.42V164.2a.58.58,0,0,1,.5-.59l3.27-.58c.34-.06.5.11.5.42Z"/><path class="cls-1" d="M255.82,160.1a.55.55,0,0,1,.5-.59l7.54-1.33c2.95-.52,4.52.81,4.52,3.76V178a5,5,0,0,1-4.52,5.32l-7.54,1.33c-.35.06-.5-.07-.5-.42ZM263,179.33a1.37,1.37,0,0,0,1.25-1.48v-14.3c0-.85-.44-1.21-1.25-1.06l-2.89.5v16.85Z"/><path class="cls-1" d="M284.06,158.27a.56.56,0,0,1-.51.62l-7.85,1.38v6.29l6-1.06c.32-.06.5.1.5.44v3.12a.58.58,0,0,1-.5.62l-6,1.06v6.34l7.85-1.38c.38-.07.51.07.51.41v3.14a.53.53,0,0,1-.51.59l-11.56,2c-.28.05-.47-.1-.47-.42V157.33a.56.56,0,0,1,.47-.58l11.56-2c.38-.07.51.1.51.41Z"/><path class="cls-1" d="M291.47,174.3,299,173c.34-.06.5.1.5.42v3.14a.54.54,0,0,1-.5.59l-11.25,2c-.31.06-.5-.06-.5-.41V154.57a.57.57,0,0,1,.5-.59l3.27-.58c.34-.06.5.1.5.42Z"/><path class="cls-1" d="M305.76,150.79c.32,0,.51.1.51.42v24.13a.58.58,0,0,1-.51.59l-3.26.57c-.35.07-.51-.1-.51-.41V152a.55.55,0,0,1,.51-.59Z"/><path class="cls-1" d="M322.73,147.8c.47-.08.66.14.56.59L318,173.21a.82.82,0,0,1-.69.69l-3.14.55a.53.53,0,0,1-.69-.44l-5.28-22.95a.6.6,0,0,1,.57-.79l3-.53a.53.53,0,0,1,.69.45l3.3,16.25L319.05,149a.82.82,0,0,1,.69-.69Z"/><path class="cls-1" d="M338.37,148.69a.56.56,0,0,1-.5.62L330,150.7V157l6-1.06c.31,0,.5.1.5.45v3.11a.59.59,0,0,1-.5.62l-6,1.06v6.35l7.85-1.39c.38-.07.5.07.5.41v3.15a.53.53,0,0,1-.5.59l-11.56,2a.38.38,0,0,1-.47-.42V147.76a.56.56,0,0,1,.47-.59l11.56-2c.38-.06.5.1.5.42Z"/><path class="cls-1" d="M354.11,154.46a4.94,4.94,0,0,1-2.29,4.55l2.17,7.85a.48.48,0,0,1-.44.64l-3.27.58a.4.4,0,0,1-.53-.35l-2.11-7.61-2.17.39v7.91a.58.58,0,0,1-.5.6l-3.27.57a.38.38,0,0,1-.5-.41V145.05a.56.56,0,0,1,.5-.59l7.89-1.39c3-.52,4.52.77,4.52,3.72Zm-5.53,1.35a1.38,1.38,0,0,0,1.26-1.48v-5.9c0-.82-.44-1.18-1.26-1l-3.11.55v8.42Z"/><path class="cls-1" d="M370.73,139.34c.47-.09.69.16.5.63l-5.75,15v9.8a.69.69,0,0,1-.63.74l-3,.53c-.41.07-.63-.11-.63-.52v-9.8l-5.75-13c-.19-.4,0-.73.51-.81l3.14-.55a.56.56,0,0,1,.72.37l3.52,8.4,3.52-9.64a.84.84,0,0,1,.72-.63Z"/><path class="cls-1" d="M323.72,110.9a2,2,0,0,0-2.28-1.76l-6.91.9c-8.39,1.09-11.53-2.69-18.43-12.13-3.49-4.77-7.48-10.22-13-14.86,6.58-4.13,10-10.86,10-20.15V28.74c0-13.16-7-18.92-20.16-16.6l-35.14,6.19A2.54,2.54,0,0,0,235.6,21V128.49a1.7,1.7,0,0,0,2.24,1.84l14.55-2.57a2.53,2.53,0,0,0,2.25-2.63V90.4c14.42,1.06,20.32,9.1,26.93,18.14,6.48,8.86,14.41,19.69,30.3,19.69a38,38,0,0,0,5-.34l7-.9a2,2,0,0,0,1.71-2.23ZM254.64,33.85l13.86-2.44c3.64-.65,5.6,1,5.6,4.61V62.34c0,3.64-2,5.94-5.6,6.59l-13.86,2.44Z"/><path class="cls-1" d="M153.62,33.44c1.82-.33,2.8.48,2.8,2.3v106.4a3.08,3.08,0,0,1-2.8,3.29l-13,2.3c-1.82.32-2.8-.49-2.8-2.31v-63l-1,.18L124,130.32a3.61,3.61,0,0,1-3.08,3.06L112,134.59a2.38,2.38,0,0,1-3.08-2L96.08,89.78l-1,.17v63a3.09,3.09,0,0,1-2.8,3.3l-12.88,2.27c-1.82.32-2.8-.49-2.8-2.31V49.81a3.08,3.08,0,0,1,2.8-3.29L97.9,43.26a2.39,2.39,0,0,1,3.08,2l15.54,60,15.54-65.46a3.64,3.64,0,0,1,3.08-3.07Z"/><path class="cls-1" d="M70.82,157.36,47.58,53.8a1.79,1.79,0,0,0-2.38-1.54L25.74,55.69a2.71,2.71,0,0,0-2.38,2.38L.12,169.83c-.42,1.61.28,2.33,1.82,2.06l15-2.65a2.68,2.68,0,0,0,2.24-2.35l3.78-21.11.15-.7c2.63-1.61,6.59-3.59,13.85-5a74.8,74.8,0,0,1,10.33-1.36l.59,2.67,3.92,19.75A1.76,1.76,0,0,0,54,162.7l14.84-2.61C70.54,159.79,71.1,158.85,70.82,157.36Zm-37.29-35c-2.27.44-4.32.93-6.19,1.46L35.4,78.49,43.45,121A98.31,98.31,0,0,0,33.53,122.41Z"/><path class="cls-1" d="M370.47,105.16,347.23,1.6A1.79,1.79,0,0,0,344.85.06L325.39,3.49A2.71,2.71,0,0,0,323,5.87L303.54,99.48a14,14,0,0,0,7.31,5.24c4.62,1.19,9.84-.52,9.84-.52l1.9-10.62.18-.85c2.62-1.6,6.57-3.54,13.73-4.92a73.36,73.36,0,0,1,10.4-1.37l.61,2.75,3.92,19.75a1.76,1.76,0,0,0,2.24,1.56l14.84-2.62C370.19,107.59,370.75,106.65,370.47,105.16Zm-37.39-35c-2.22.43-4.23.92-6.07,1.43l8-45.28,8,42.4C340.29,68.93,337,69.38,333.08,70.13Z"/><path class="cls-1" d="M225.17,41.52c.47-13.09-6.37-18.84-19.69-16.56l-17.89,2.71c-13.33,2.27-20.66,10.44-21.13,23.53l.39,71.29c-.47,13.08,6.37,18.84,19.69,16.56l17.89-2.71c13.33-2.27,20.66-10.44,21.13-23.53ZM179.75,90.47c-5-23.25,7.79-38.69,16.17-48.34-1.45,13.13,5.68,21.69,10,32.43,3.45,8.71,6.08,19.54,1.18,33.81-20-12.76-18.9-29.51-16.93-43.07-6.1,11.3-3.62,28.9,5.21,50C189.85,111.46,182.68,104,179.75,90.47Zm26.14,29c-2.3-1.65-9.13-9.79-10.2-16.06,2.77,6.31,9.67,11.35,13.51,12.2S208.19,121.14,205.89,119.49Z"/></g></g></svg>