<svg xmlns="http://www.w3.org/2000/svg" viewBox="0 0 60.6 41.92"><defs><style>.cls-1{fill:#264bb1;}</style></defs><g id="Layer_2" data-name="Layer 2"><g id="Layer_6" data-name="Layer 6"><path class="cls-1" d="M56.77,41.92H3.83A3.84,3.84,0,0,1,0,38.09V3.83A3.84,3.84,0,0,1,3.83,0H56.77A3.84,3.84,0,0,1,60.6,3.83V38.09A3.84,3.84,0,0,1,56.77,41.92ZM3.83,3A.83.83,0,0,0,3,3.83V38.09a.83.83,0,0,0,.83.83H56.77a.83.83,0,0,0,.83-.83V3.83A.83.83,0,0,0,56.77,3Z"/><path class="cls-1" d="M30.3,23.64a4.41,4.41,0,0,1-2.55-.81L.63,3.67A1.51,1.51,0,0,1,.27,1.58a1.53,1.53,0,0,1,2.1-.36L29.48,20.38a1.45,1.45,0,0,0,1.64,0L58.24,1.22A1.5,1.5,0,1,1,60,3.67L32.85,22.83A4.39,4.39,0,0,1,30.3,23.64Z"/><path class="cls-1" d="M2.07,41.5a1.5,1.5,0,0,1-1-2.59L23.64,17.72a1.5,1.5,0,1,1,2.06,2.19L3.1,41.1A1.5,1.5,0,0,1,2.07,41.5Z"/><path class="cls-1" d="M58.81,41.18a1.49,1.49,0,0,1-1-.41L35.26,19.66a1.5,1.5,0,0,1,2.06-2.19L59.84,38.58a1.5,1.5,0,0,1-1,2.6Z"/></g></g></svg>