<svg xmlns="http://www.w3.org/2000/svg" viewBox="0 0 53.44 53.39"><defs><style>.cls-1{fill:#cc2357;}</style></defs><g id="Layer_2" data-name="Layer 2"><g id="Layer_6" data-name="Layer 6"><path class="cls-1" d="M40.17,53.39H3.39A3.4,3.4,0,0,1,0,50V13.21A3.39,3.39,0,0,1,3.39,9.82H36.27a1.5,1.5,0,0,1,0,3H3.39a.4.4,0,0,0-.39.39V50a.4.4,0,0,0,.39.4H40.17a.4.4,0,0,0,.4-.4V26.58a1.5,1.5,0,0,1,3,0V50A3.41,3.41,0,0,1,40.17,53.39Z"/><path class="cls-1" d="M22.73,42a2.56,2.56,0,0,1-2-1L9.6,27.19a1.5,1.5,0,1,1,2.34-1.87L22.72,38.77,50.73.61a1.5,1.5,0,1,1,2.42,1.78L24.82,41a2.58,2.58,0,0,1-2,1.05Z"/></g></g></svg>