<svg xmlns="http://www.w3.org/2000/svg" viewBox="0 0 153.85 128.93"><defs><style>.cls-1{fill:#cc2357;}.cls-2{fill:#fff;}</style></defs><g id="Layer_2" data-name="Layer 2"><g id="Layer_6" data-name="Layer 6"><circle class="cls-1" cx="80.91" cy="31.16" r="0.81"/><circle class="cls-1" cx="87.47" cy="31.16" r="0.81"/><circle class="cls-1" cx="94.02" cy="31.16" r="0.81"/><circle class="cls-1" cx="100.58" cy="31.16" r="0.81"/><circle class="cls-1" cx="133.37" cy="31.16" r="0.81"/><circle class="cls-1" cx="139.92" cy="31.16" r="0.81"/><circle class="cls-1" cx="146.48" cy="31.16" r="0.81"/><circle class="cls-1" cx="153.04" cy="31.16" r="0.81"/><circle class="cls-1" cx="54.68" cy="31.16" r="0.81"/><circle class="cls-1" cx="61.24" cy="31.16" r="0.81"/><circle class="cls-1" cx="67.79" cy="31.16" r="0.81"/><circle class="cls-1" cx="74.35" cy="31.16" r="0.81"/><circle class="cls-1" cx="107.14" cy="31.16" r="0.81"/><circle class="cls-1" cx="113.7" cy="31.16" r="0.81"/><circle class="cls-1" cx="120.25" cy="31.16" r="0.81"/><circle class="cls-1" cx="126.81" cy="31.16" r="0.81"/><circle class="cls-1" cx="80.91" cy="36.87" r="0.81"/><circle class="cls-1" cx="87.47" cy="36.87" r="0.81"/><circle class="cls-1" cx="94.02" cy="36.87" r="0.81"/><circle class="cls-1" cx="100.58" cy="36.87" r="0.81"/><circle class="cls-1" cx="133.37" cy="36.87" r="0.81"/><circle class="cls-1" cx="139.92" cy="36.87" r="0.81"/><circle class="cls-1" cx="146.48" cy="36.87" r="0.81"/><circle class="cls-1" cx="153.04" cy="36.87" r="0.81"/><circle class="cls-1" cx="54.68" cy="36.87" r="0.81"/><circle class="cls-1" cx="61.24" cy="36.87" r="0.81"/><circle class="cls-1" cx="67.79" cy="36.87" r="0.81"/><circle class="cls-1" cx="74.35" cy="36.87" r="0.81"/><circle class="cls-1" cx="107.14" cy="36.87" r="0.81"/><circle class="cls-1" cx="113.7" cy="36.87" r="0.81"/><circle class="cls-1" cx="120.25" cy="36.87" r="0.81"/><circle class="cls-1" cx="126.81" cy="36.87" r="0.81"/><circle class="cls-1" cx="80.91" cy="42.57" r="0.81"/><circle class="cls-1" cx="87.47" cy="42.57" r="0.81"/><circle class="cls-1" cx="94.02" cy="42.57" r="0.81"/><circle class="cls-1" cx="100.58" cy="42.57" r="0.81"/><circle class="cls-1" cx="133.37" cy="42.57" r="0.81"/><circle class="cls-1" cx="139.92" cy="42.57" r="0.81"/><circle class="cls-1" cx="146.48" cy="42.57" r="0.81"/><circle class="cls-1" cx="153.04" cy="42.57" r="0.81"/><circle class="cls-1" cx="54.68" cy="42.57" r="0.81"/><circle class="cls-1" cx="61.24" cy="42.57" r="0.81"/><circle class="cls-1" cx="67.79" cy="42.57" r="0.81"/><circle class="cls-1" cx="74.35" cy="42.57" r="0.81"/><circle class="cls-1" cx="107.14" cy="42.57" r="0.81"/><circle class="cls-1" cx="113.7" cy="42.57" r="0.81"/><circle class="cls-1" cx="120.25" cy="42.57" r="0.81"/><circle class="cls-1" cx="126.81" cy="42.57" r="0.81"/><circle class="cls-1" cx="80.91" cy="48.28" r="0.81"/><circle class="cls-1" cx="87.47" cy="48.28" r="0.81"/><circle class="cls-1" cx="94.02" cy="48.28" r="0.81"/><circle class="cls-1" cx="100.58" cy="48.28" r="0.81"/><circle class="cls-1" cx="133.37" cy="48.28" r="0.81"/><circle class="cls-1" cx="139.92" cy="48.28" r="0.81"/><circle class="cls-1" cx="146.48" cy="48.28" r="0.81"/><circle class="cls-1" cx="153.04" cy="48.28" r="0.81"/><circle class="cls-1" cx="54.68" cy="48.28" r="0.81"/><circle class="cls-1" cx="61.24" cy="48.28" r="0.81"/><circle class="cls-1" cx="67.79" cy="48.28" r="0.81"/><circle class="cls-1" cx="74.35" cy="48.28" r="0.81"/><circle class="cls-1" cx="107.14" cy="48.28" r="0.81"/><circle class="cls-1" cx="113.7" cy="48.28" r="0.81"/><circle class="cls-1" cx="120.25" cy="48.28" r="0.81"/><circle class="cls-1" cx="126.81" cy="48.28" r="0.81"/><circle class="cls-1" cx="80.91" cy="53.98" r="0.81"/><circle class="cls-1" cx="87.47" cy="53.98" r="0.81"/><circle class="cls-1" cx="94.02" cy="53.98" r="0.81"/><circle class="cls-1" cx="100.58" cy="53.98" r="0.81"/><circle class="cls-1" cx="133.37" cy="53.98" r="0.81"/><circle class="cls-1" cx="139.92" cy="53.98" r="0.81"/><circle class="cls-1" cx="146.48" cy="53.98" r="0.81"/><circle class="cls-1" cx="153.04" cy="53.98" r="0.81"/><circle class="cls-1" cx="54.68" cy="53.98" r="0.81"/><circle class="cls-1" cx="61.24" cy="53.98" r="0.81"/><circle class="cls-1" cx="67.79" cy="53.98" r="0.81"/><circle class="cls-1" cx="74.35" cy="53.98" r="0.81"/><circle class="cls-1" cx="107.14" cy="53.98" r="0.81"/><circle class="cls-1" cx="113.7" cy="53.98" r="0.81"/><circle class="cls-1" cx="120.25" cy="53.98" r="0.81"/><circle class="cls-1" cx="126.81" cy="53.98" r="0.81"/><circle class="cls-1" cx="80.91" cy="59.69" r="0.81"/><circle class="cls-1" cx="87.47" cy="59.69" r="0.81"/><circle class="cls-1" cx="94.02" cy="59.69" r="0.81"/><circle class="cls-1" cx="100.58" cy="59.69" r="0.81"/><circle class="cls-1" cx="133.37" cy="59.69" r="0.81"/><circle class="cls-1" cx="139.92" cy="59.69" r="0.81"/><circle class="cls-1" cx="146.48" cy="59.69" r="0.81"/><circle class="cls-1" cx="153.04" cy="59.69" r="0.81"/><circle class="cls-1" cx="54.68" cy="59.69" r="0.81"/><circle class="cls-1" cx="61.24" cy="59.69" r="0.81"/><circle class="cls-1" cx="67.79" cy="59.69" r="0.81"/><circle class="cls-1" cx="74.35" cy="59.69" r="0.81"/><circle class="cls-1" cx="107.14" cy="59.69" r="0.81"/><circle class="cls-1" cx="113.7" cy="59.69" r="0.81"/><circle class="cls-1" cx="120.25" cy="59.69" r="0.81"/><circle class="cls-1" cx="126.81" cy="59.69" r="0.81"/><circle class="cls-1" cx="80.91" cy="65.39" r="0.81"/><circle class="cls-1" cx="87.47" cy="65.39" r="0.81"/><circle class="cls-1" cx="94.02" cy="65.39" r="0.81"/><circle class="cls-1" cx="100.58" cy="65.39" r="0.81"/><circle class="cls-1" cx="133.37" cy="65.39" r="0.81"/><circle class="cls-1" cx="139.92" cy="65.39" r="0.81"/><circle class="cls-1" cx="146.48" cy="65.39" r="0.81"/><circle class="cls-1" cx="153.04" cy="65.39" r="0.81"/><circle class="cls-1" cx="54.68" cy="65.39" r="0.81"/><circle class="cls-1" cx="61.24" cy="65.39" r="0.81"/><circle class="cls-1" cx="67.79" cy="65.39" r="0.81"/><circle class="cls-1" cx="74.35" cy="65.39" r="0.81"/><circle class="cls-1" cx="107.14" cy="65.39" r="0.81"/><circle class="cls-1" cx="113.7" cy="65.39" r="0.81"/><circle class="cls-1" cx="120.25" cy="65.39" r="0.81"/><circle class="cls-1" cx="126.81" cy="65.39" r="0.81"/><circle class="cls-1" cx="80.91" cy="71.1" r="0.81"/><circle class="cls-1" cx="87.47" cy="71.1" r="0.81"/><circle class="cls-1" cx="94.02" cy="71.1" r="0.81"/><circle class="cls-1" cx="100.58" cy="71.1" r="0.81"/><circle class="cls-1" cx="133.37" cy="71.1" r="0.81"/><circle class="cls-1" cx="139.92" cy="71.1" r="0.81"/><circle class="cls-1" cx="146.48" cy="71.1" r="0.81"/><circle class="cls-1" cx="153.04" cy="71.1" r="0.81"/><circle class="cls-1" cx="54.68" cy="71.1" r="0.81"/><circle class="cls-1" cx="61.24" cy="71.1" r="0.81"/><circle class="cls-1" cx="67.79" cy="71.1" r="0.81"/><circle class="cls-1" cx="74.35" cy="71.1" r="0.81"/><circle class="cls-1" cx="107.14" cy="71.1" r="0.81"/><circle class="cls-1" cx="113.7" cy="71.1" r="0.81"/><circle class="cls-1" cx="120.25" cy="71.1" r="0.81"/><circle class="cls-1" cx="126.81" cy="71.1" r="0.81"/><circle class="cls-1" cx="80.91" cy="76.8" r="0.81"/><circle class="cls-1" cx="87.47" cy="76.8" r="0.81"/><circle class="cls-1" cx="94.02" cy="76.8" r="0.81"/><circle class="cls-1" cx="100.58" cy="76.8" r="0.81"/><circle class="cls-1" cx="133.37" cy="76.8" r="0.81"/><circle class="cls-1" cx="139.92" cy="76.8" r="0.81"/><circle class="cls-1" cx="146.48" cy="76.8" r="0.81"/><circle class="cls-1" cx="153.04" cy="76.8" r="0.81"/><circle class="cls-1" cx="54.68" cy="76.8" r="0.81"/><circle class="cls-1" cx="61.24" cy="76.8" r="0.81"/><circle class="cls-1" cx="67.79" cy="76.8" r="0.81"/><circle class="cls-1" cx="74.35" cy="76.8" r="0.81"/><circle class="cls-1" cx="107.14" cy="76.8" r="0.81"/><circle class="cls-1" cx="113.7" cy="76.8" r="0.81"/><circle class="cls-1" cx="120.25" cy="76.8" r="0.81"/><circle class="cls-1" cx="126.81" cy="76.8" r="0.81"/><circle class="cls-1" cx="80.91" cy="82.51" r="0.81"/><circle class="cls-1" cx="87.47" cy="82.51" r="0.81"/><circle class="cls-1" cx="94.02" cy="82.51" r="0.81"/><circle class="cls-1" cx="100.58" cy="82.51" r="0.81"/><circle class="cls-1" cx="133.37" cy="82.51" r="0.81"/><circle class="cls-1" cx="139.92" cy="82.51" r="0.81"/><circle class="cls-1" cx="146.48" cy="82.51" r="0.81"/><circle class="cls-1" cx="153.04" cy="82.51" r="0.81"/><circle class="cls-1" cx="54.68" cy="82.51" r="0.81"/><circle class="cls-1" cx="61.24" cy="82.51" r="0.81"/><circle class="cls-1" cx="67.79" cy="82.51" r="0.81"/><circle class="cls-1" cx="74.35" cy="82.51" r="0.81"/><circle class="cls-1" cx="107.14" cy="82.51" r="0.81"/><circle class="cls-1" cx="113.7" cy="82.51" r="0.81"/><circle class="cls-1" cx="120.25" cy="82.51" r="0.81"/><circle class="cls-1" cx="126.81" cy="82.51" r="0.81"/><circle class="cls-1" cx="80.91" cy="88.21" r="0.81"/><circle class="cls-1" cx="87.47" cy="88.21" r="0.81"/><circle class="cls-1" cx="94.02" cy="88.21" r="0.81"/><circle class="cls-1" cx="100.58" cy="88.21" r="0.81"/><circle class="cls-1" cx="133.37" cy="88.21" r="0.81"/><circle class="cls-1" cx="139.92" cy="88.21" r="0.81"/><circle class="cls-1" cx="146.48" cy="88.21" r="0.81"/><circle class="cls-1" cx="153.04" cy="88.21" r="0.81"/><circle class="cls-1" cx="54.68" cy="88.21" r="0.81"/><circle class="cls-1" cx="61.24" cy="88.21" r="0.81"/><circle class="cls-1" cx="67.79" cy="88.21" r="0.81"/><circle class="cls-1" cx="74.35" cy="88.21" r="0.81"/><circle class="cls-1" cx="107.14" cy="88.21" r="0.81"/><circle class="cls-1" cx="113.7" cy="88.21" r="0.81"/><circle class="cls-1" cx="120.25" cy="88.21" r="0.81"/><circle class="cls-1" cx="126.81" cy="88.21" r="0.81"/><circle class="cls-1" cx="80.91" cy="93.92" r="0.81"/><circle class="cls-1" cx="87.47" cy="93.92" r="0.81"/><circle class="cls-1" cx="94.02" cy="93.92" r="0.81"/><circle class="cls-1" cx="100.58" cy="93.92" r="0.81"/><circle class="cls-1" cx="133.37" cy="93.92" r="0.81"/><circle class="cls-1" cx="139.92" cy="93.92" r="0.81"/><circle class="cls-1" cx="146.48" cy="93.92" r="0.81"/><circle class="cls-1" cx="153.04" cy="93.92" r="0.81"/><circle class="cls-1" cx="54.68" cy="93.92" r="0.81"/><circle class="cls-1" cx="61.24" cy="93.92" r="0.81"/><circle class="cls-1" cx="67.79" cy="93.92" r="0.81"/><circle class="cls-1" cx="74.35" cy="93.92" r="0.81"/><circle class="cls-1" cx="107.14" cy="93.92" r="0.81"/><circle class="cls-1" cx="113.7" cy="93.92" r="0.81"/><circle class="cls-1" cx="120.25" cy="93.92" r="0.81"/><circle class="cls-1" cx="126.81" cy="93.92" r="0.81"/><circle class="cls-1" cx="80.91" cy="99.62" r="0.81"/><circle class="cls-1" cx="87.47" cy="99.62" r="0.81"/><circle class="cls-1" cx="94.02" cy="99.62" r="0.81"/><circle class="cls-1" cx="100.58" cy="99.62" r="0.81"/><circle class="cls-1" cx="133.37" cy="99.62" r="0.81"/><circle class="cls-1" cx="139.92" cy="99.62" r="0.81"/><circle class="cls-1" cx="146.48" cy="99.62" r="0.81"/><circle class="cls-1" cx="153.04" cy="99.62" r="0.81"/><circle class="cls-1" cx="54.68" cy="99.62" r="0.81"/><circle class="cls-1" cx="61.24" cy="99.62" r="0.81"/><circle class="cls-1" cx="67.79" cy="99.62" r="0.81"/><circle class="cls-1" cx="74.35" cy="99.62" r="0.81"/><circle class="cls-1" cx="107.14" cy="99.62" r="0.81"/><circle class="cls-1" cx="113.7" cy="99.62" r="0.81"/><circle class="cls-1" cx="120.25" cy="99.62" r="0.81"/><circle class="cls-1" cx="126.81" cy="99.62" r="0.81"/><circle class="cls-1" cx="80.91" cy="105.33" r="0.81"/><circle class="cls-1" cx="87.47" cy="105.33" r="0.81"/><circle class="cls-1" cx="94.02" cy="105.33" r="0.81"/><circle class="cls-1" cx="100.58" cy="105.33" r="0.81"/><circle class="cls-1" cx="133.37" cy="105.33" r="0.81"/><circle class="cls-1" cx="139.92" cy="105.33" r="0.81"/><circle class="cls-1" cx="146.48" cy="105.33" r="0.81"/><circle class="cls-1" cx="153.04" cy="105.33" r="0.81"/><circle class="cls-1" cx="54.68" cy="105.33" r="0.81"/><circle class="cls-1" cx="61.24" cy="105.33" r="0.81"/><circle class="cls-1" cx="67.79" cy="105.33" r="0.81"/><circle class="cls-1" cx="74.35" cy="105.33" r="0.81"/><circle class="cls-1" cx="107.14" cy="105.33" r="0.81"/><circle class="cls-1" cx="113.7" cy="105.33" r="0.81"/><circle class="cls-1" cx="120.25" cy="105.33" r="0.81"/><circle class="cls-1" cx="126.81" cy="105.33" r="0.81"/><circle class="cls-1" cx="80.91" cy="111.03" r="0.81"/><circle class="cls-1" cx="87.47" cy="111.03" r="0.81"/><circle class="cls-1" cx="94.02" cy="111.03" r="0.81"/><circle class="cls-1" cx="100.58" cy="111.03" r="0.81"/><circle class="cls-1" cx="133.37" cy="111.03" r="0.81"/><circle class="cls-1" cx="139.92" cy="111.03" r="0.81"/><circle class="cls-1" cx="146.48" cy="111.03" r="0.81"/><circle class="cls-1" cx="153.04" cy="111.03" r="0.81"/><circle class="cls-1" cx="54.68" cy="111.03" r="0.81"/><circle class="cls-1" cx="61.24" cy="111.03" r="0.81"/><circle class="cls-1" cx="67.79" cy="111.03" r="0.81"/><circle class="cls-1" cx="74.35" cy="111.03" r="0.81"/><circle class="cls-1" cx="107.14" cy="111.03" r="0.81"/><circle class="cls-1" cx="113.7" cy="111.03" r="0.81"/><circle class="cls-1" cx="120.25" cy="111.03" r="0.81"/><circle class="cls-1" cx="126.81" cy="111.03" r="0.81"/><circle class="cls-1" cx="80.91" cy="116.74" r="0.81"/><circle class="cls-1" cx="87.47" cy="116.74" r="0.81"/><circle class="cls-1" cx="94.02" cy="116.74" r="0.81"/><circle class="cls-1" cx="100.58" cy="116.74" r="0.81"/><circle class="cls-1" cx="133.37" cy="116.74" r="0.81"/><circle class="cls-1" cx="139.92" cy="116.74" r="0.81"/><circle class="cls-1" cx="146.48" cy="116.74" r="0.81"/><circle class="cls-1" cx="153.04" cy="116.74" r="0.81"/><circle class="cls-1" cx="54.68" cy="116.74" r="0.81"/><circle class="cls-1" cx="61.24" cy="116.74" r="0.81"/><circle class="cls-1" cx="67.79" cy="116.74" r="0.81"/><circle class="cls-1" cx="74.35" cy="116.74" r="0.81"/><circle class="cls-1" cx="107.14" cy="116.74" r="0.81"/><circle class="cls-1" cx="113.7" cy="116.74" r="0.81"/><circle class="cls-1" cx="120.25" cy="116.74" r="0.81"/><circle class="cls-1" cx="126.81" cy="116.74" r="0.81"/><circle class="cls-1" cx="80.91" cy="122.44" r="0.81"/><circle class="cls-1" cx="87.47" cy="122.44" r="0.81"/><circle class="cls-1" cx="94.02" cy="122.44" r="0.81"/><circle class="cls-1" cx="100.58" cy="122.44" r="0.81"/><circle class="cls-1" cx="133.37" cy="122.44" r="0.81"/><circle class="cls-1" cx="139.92" cy="122.44" r="0.81"/><circle class="cls-1" cx="146.48" cy="122.44" r="0.81"/><circle class="cls-1" cx="153.04" cy="122.44" r="0.81"/><circle class="cls-1" cx="54.68" cy="122.44" r="0.81"/><circle class="cls-1" cx="61.24" cy="122.44" r="0.81"/><circle class="cls-1" cx="67.79" cy="122.44" r="0.81"/><circle class="cls-1" cx="74.35" cy="122.44" r="0.81"/><circle class="cls-1" cx="107.14" cy="122.44" r="0.81"/><circle class="cls-1" cx="113.7" cy="122.44" r="0.81"/><circle class="cls-1" cx="120.25" cy="122.44" r="0.81"/><circle class="cls-1" cx="126.81" cy="122.44" r="0.81"/><path class="cls-2" d="M131.28,105,4.61,128.93A4.6,4.6,0,0,1,0,124.33V28.55A4.6,4.6,0,0,1,4.61,24L131.28,0a4.6,4.6,0,0,1,4.61,4.61v95.77A4.6,4.6,0,0,1,131.28,105Z"/><path class="cls-1" d="M84.22,89.19H47.44a3.4,3.4,0,0,1-3.4-3.4V49a3.41,3.41,0,0,1,3.4-3.4H80.31a1.5,1.5,0,0,1,0,3H47.44a.4.4,0,0,0-.4.4V85.79a.4.4,0,0,0,.4.4H84.22a.4.4,0,0,0,.39-.4V62.39a1.5,1.5,0,0,1,3,0v23.4A3.4,3.4,0,0,1,84.22,89.19Z"/><path class="cls-1" d="M66.77,77.84a2.55,2.55,0,0,1-2-1L53.64,63A1.5,1.5,0,0,1,56,61.12L66.76,74.57l28-38.15a1.5,1.5,0,1,1,2.42,1.77L68.86,76.78a2.59,2.59,0,0,1-2,1.06Z"/></g></g></svg>