<svg xmlns="http://www.w3.org/2000/svg" viewBox="0 0 153.85 128.93"><defs><style>.cls-1{fill:#264bb1;}.cls-2{fill:#fff;}</style></defs><g id="Layer_2" data-name="Layer 2"><g id="Layer_6" data-name="Layer 6"><circle class="cls-1" cx="80.91" cy="31.16" r="0.81"/><circle class="cls-1" cx="87.47" cy="31.16" r="0.81"/><circle class="cls-1" cx="94.02" cy="31.16" r="0.81"/><circle class="cls-1" cx="100.58" cy="31.16" r="0.81"/><circle class="cls-1" cx="133.37" cy="31.16" r="0.81"/><circle class="cls-1" cx="139.92" cy="31.16" r="0.81"/><circle class="cls-1" cx="146.48" cy="31.16" r="0.81"/><circle class="cls-1" cx="153.04" cy="31.16" r="0.81"/><circle class="cls-1" cx="54.68" cy="31.16" r="0.81"/><circle class="cls-1" cx="61.24" cy="31.16" r="0.81"/><circle class="cls-1" cx="67.79" cy="31.16" r="0.81"/><circle class="cls-1" cx="74.35" cy="31.16" r="0.81"/><circle class="cls-1" cx="107.14" cy="31.16" r="0.81"/><circle class="cls-1" cx="113.7" cy="31.16" r="0.81"/><circle class="cls-1" cx="120.25" cy="31.16" r="0.81"/><circle class="cls-1" cx="126.81" cy="31.16" r="0.81"/><circle class="cls-1" cx="80.91" cy="36.87" r="0.81"/><circle class="cls-1" cx="87.47" cy="36.87" r="0.81"/><circle class="cls-1" cx="94.02" cy="36.87" r="0.81"/><circle class="cls-1" cx="100.58" cy="36.87" r="0.81"/><circle class="cls-1" cx="133.37" cy="36.87" r="0.81"/><circle class="cls-1" cx="139.92" cy="36.87" r="0.81"/><circle class="cls-1" cx="146.48" cy="36.87" r="0.81"/><circle class="cls-1" cx="153.04" cy="36.87" r="0.81"/><circle class="cls-1" cx="54.68" cy="36.87" r="0.81"/><circle class="cls-1" cx="61.24" cy="36.87" r="0.81"/><circle class="cls-1" cx="67.79" cy="36.87" r="0.81"/><circle class="cls-1" cx="74.35" cy="36.87" r="0.81"/><circle class="cls-1" cx="107.14" cy="36.87" r="0.81"/><circle class="cls-1" cx="113.7" cy="36.87" r="0.81"/><circle class="cls-1" cx="120.25" cy="36.87" r="0.81"/><circle class="cls-1" cx="126.81" cy="36.87" r="0.81"/><circle class="cls-1" cx="80.91" cy="42.57" r="0.81"/><circle class="cls-1" cx="87.47" cy="42.57" r="0.81"/><circle class="cls-1" cx="94.02" cy="42.57" r="0.81"/><circle class="cls-1" cx="100.58" cy="42.57" r="0.81"/><circle class="cls-1" cx="133.37" cy="42.57" r="0.81"/><circle class="cls-1" cx="139.92" cy="42.57" r="0.81"/><circle class="cls-1" cx="146.48" cy="42.57" r="0.81"/><circle class="cls-1" cx="153.04" cy="42.57" r="0.81"/><circle class="cls-1" cx="54.68" cy="42.57" r="0.81"/><circle class="cls-1" cx="61.24" cy="42.57" r="0.81"/><circle class="cls-1" cx="67.79" cy="42.57" r="0.81"/><circle class="cls-1" cx="74.35" cy="42.57" r="0.81"/><circle class="cls-1" cx="107.14" cy="42.57" r="0.81"/><circle class="cls-1" cx="113.7" cy="42.57" r="0.81"/><circle class="cls-1" cx="120.25" cy="42.57" r="0.81"/><circle class="cls-1" cx="126.81" cy="42.57" r="0.81"/><circle class="cls-1" cx="80.91" cy="48.28" r="0.81"/><circle class="cls-1" cx="87.47" cy="48.28" r="0.81"/><circle class="cls-1" cx="94.02" cy="48.28" r="0.81"/><circle class="cls-1" cx="100.58" cy="48.28" r="0.81"/><circle class="cls-1" cx="133.37" cy="48.28" r="0.81"/><circle class="cls-1" cx="139.92" cy="48.28" r="0.81"/><circle class="cls-1" cx="146.48" cy="48.28" r="0.81"/><circle class="cls-1" cx="153.04" cy="48.28" r="0.81"/><circle class="cls-1" cx="54.68" cy="48.28" r="0.81"/><circle class="cls-1" cx="61.24" cy="48.28" r="0.81"/><circle class="cls-1" cx="67.79" cy="48.28" r="0.81"/><circle class="cls-1" cx="74.35" cy="48.28" r="0.81"/><circle class="cls-1" cx="107.14" cy="48.28" r="0.81"/><circle class="cls-1" cx="113.7" cy="48.28" r="0.81"/><circle class="cls-1" cx="120.25" cy="48.28" r="0.81"/><circle class="cls-1" cx="126.81" cy="48.28" r="0.81"/><circle class="cls-1" cx="80.91" cy="53.98" r="0.81"/><circle class="cls-1" cx="87.47" cy="53.98" r="0.81"/><circle class="cls-1" cx="94.02" cy="53.98" r="0.81"/><circle class="cls-1" cx="100.58" cy="53.98" r="0.81"/><circle class="cls-1" cx="133.37" cy="53.98" r="0.81"/><circle class="cls-1" cx="139.92" cy="53.98" r="0.81"/><circle class="cls-1" cx="146.48" cy="53.98" r="0.81"/><circle class="cls-1" cx="153.04" cy="53.98" r="0.81"/><circle class="cls-1" cx="54.68" cy="53.98" r="0.81"/><circle class="cls-1" cx="61.24" cy="53.98" r="0.81"/><circle class="cls-1" cx="67.79" cy="53.98" r="0.81"/><circle class="cls-1" cx="74.35" cy="53.98" r="0.81"/><circle class="cls-1" cx="107.14" cy="53.98" r="0.81"/><circle class="cls-1" cx="113.7" cy="53.98" r="0.81"/><circle class="cls-1" cx="120.25" cy="53.98" r="0.81"/><circle class="cls-1" cx="126.81" cy="53.98" r="0.81"/><circle class="cls-1" cx="80.91" cy="59.69" r="0.81"/><circle class="cls-1" cx="87.47" cy="59.69" r="0.81"/><circle class="cls-1" cx="94.02" cy="59.69" r="0.81"/><circle class="cls-1" cx="100.58" cy="59.69" r="0.81"/><circle class="cls-1" cx="133.37" cy="59.69" r="0.81"/><circle class="cls-1" cx="139.92" cy="59.69" r="0.81"/><circle class="cls-1" cx="146.48" cy="59.69" r="0.81"/><circle class="cls-1" cx="153.04" cy="59.69" r="0.81"/><circle class="cls-1" cx="54.68" cy="59.69" r="0.81"/><circle class="cls-1" cx="61.24" cy="59.69" r="0.81"/><circle class="cls-1" cx="67.79" cy="59.69" r="0.81"/><circle class="cls-1" cx="74.35" cy="59.69" r="0.81"/><circle class="cls-1" cx="107.14" cy="59.69" r="0.81"/><circle class="cls-1" cx="113.7" cy="59.69" r="0.81"/><circle class="cls-1" cx="120.25" cy="59.69" r="0.81"/><circle class="cls-1" cx="126.81" cy="59.69" r="0.81"/><circle class="cls-1" cx="80.91" cy="65.39" r="0.81"/><circle class="cls-1" cx="87.47" cy="65.39" r="0.81"/><circle class="cls-1" cx="94.02" cy="65.39" r="0.81"/><circle class="cls-1" cx="100.58" cy="65.39" r="0.81"/><circle class="cls-1" cx="133.37" cy="65.39" r="0.81"/><circle class="cls-1" cx="139.92" cy="65.39" r="0.81"/><circle class="cls-1" cx="146.48" cy="65.39" r="0.81"/><circle class="cls-1" cx="153.04" cy="65.39" r="0.81"/><circle class="cls-1" cx="54.68" cy="65.39" r="0.81"/><circle class="cls-1" cx="61.24" cy="65.39" r="0.81"/><circle class="cls-1" cx="67.79" cy="65.39" r="0.81"/><circle class="cls-1" cx="74.35" cy="65.39" r="0.81"/><circle class="cls-1" cx="107.14" cy="65.39" r="0.81"/><circle class="cls-1" cx="113.7" cy="65.39" r="0.81"/><circle class="cls-1" cx="120.25" cy="65.39" r="0.81"/><circle class="cls-1" cx="126.81" cy="65.39" r="0.81"/><circle class="cls-1" cx="80.91" cy="71.1" r="0.81"/><circle class="cls-1" cx="87.47" cy="71.1" r="0.81"/><circle class="cls-1" cx="94.02" cy="71.1" r="0.81"/><circle class="cls-1" cx="100.58" cy="71.1" r="0.81"/><circle class="cls-1" cx="133.37" cy="71.1" r="0.81"/><circle class="cls-1" cx="139.92" cy="71.1" r="0.81"/><circle class="cls-1" cx="146.48" cy="71.1" r="0.81"/><circle class="cls-1" cx="153.04" cy="71.1" r="0.81"/><circle class="cls-1" cx="54.68" cy="71.1" r="0.81"/><circle class="cls-1" cx="61.24" cy="71.1" r="0.81"/><circle class="cls-1" cx="67.79" cy="71.1" r="0.81"/><circle class="cls-1" cx="74.35" cy="71.1" r="0.81"/><circle class="cls-1" cx="107.14" cy="71.1" r="0.81"/><circle class="cls-1" cx="113.7" cy="71.1" r="0.81"/><circle class="cls-1" cx="120.25" cy="71.1" r="0.81"/><circle class="cls-1" cx="126.81" cy="71.1" r="0.81"/><circle class="cls-1" cx="80.91" cy="76.8" r="0.81"/><circle class="cls-1" cx="87.47" cy="76.8" r="0.81"/><circle class="cls-1" cx="94.02" cy="76.8" r="0.81"/><circle class="cls-1" cx="100.58" cy="76.8" r="0.81"/><circle class="cls-1" cx="133.37" cy="76.8" r="0.81"/><circle class="cls-1" cx="139.92" cy="76.8" r="0.81"/><circle class="cls-1" cx="146.48" cy="76.8" r="0.81"/><circle class="cls-1" cx="153.04" cy="76.8" r="0.81"/><circle class="cls-1" cx="54.68" cy="76.8" r="0.81"/><circle class="cls-1" cx="61.24" cy="76.8" r="0.81"/><circle class="cls-1" cx="67.79" cy="76.8" r="0.81"/><circle class="cls-1" cx="74.35" cy="76.8" r="0.81"/><circle class="cls-1" cx="107.14" cy="76.8" r="0.81"/><circle class="cls-1" cx="113.7" cy="76.8" r="0.81"/><circle class="cls-1" cx="120.25" cy="76.8" r="0.81"/><circle class="cls-1" cx="126.81" cy="76.8" r="0.81"/><circle class="cls-1" cx="80.91" cy="82.51" r="0.81"/><circle class="cls-1" cx="87.47" cy="82.51" r="0.81"/><circle class="cls-1" cx="94.02" cy="82.51" r="0.81"/><circle class="cls-1" cx="100.58" cy="82.51" r="0.81"/><circle class="cls-1" cx="133.37" cy="82.51" r="0.81"/><circle class="cls-1" cx="139.92" cy="82.51" r="0.81"/><circle class="cls-1" cx="146.48" cy="82.51" r="0.81"/><circle class="cls-1" cx="153.04" cy="82.51" r="0.81"/><circle class="cls-1" cx="54.68" cy="82.51" r="0.81"/><circle class="cls-1" cx="61.24" cy="82.51" r="0.81"/><circle class="cls-1" cx="67.79" cy="82.51" r="0.81"/><circle class="cls-1" cx="74.35" cy="82.51" r="0.81"/><circle class="cls-1" cx="107.14" cy="82.51" r="0.81"/><circle class="cls-1" cx="113.7" cy="82.51" r="0.81"/><circle class="cls-1" cx="120.25" cy="82.51" r="0.81"/><circle class="cls-1" cx="126.81" cy="82.51" r="0.81"/><circle class="cls-1" cx="80.91" cy="88.21" r="0.81"/><circle class="cls-1" cx="87.47" cy="88.21" r="0.81"/><circle class="cls-1" cx="94.02" cy="88.21" r="0.81"/><circle class="cls-1" cx="100.58" cy="88.21" r="0.81"/><circle class="cls-1" cx="133.37" cy="88.21" r="0.81"/><circle class="cls-1" cx="139.92" cy="88.21" r="0.81"/><circle class="cls-1" cx="146.48" cy="88.21" r="0.81"/><circle class="cls-1" cx="153.04" cy="88.21" r="0.81"/><circle class="cls-1" cx="54.68" cy="88.21" r="0.81"/><circle class="cls-1" cx="61.24" cy="88.21" r="0.81"/><circle class="cls-1" cx="67.79" cy="88.21" r="0.81"/><circle class="cls-1" cx="74.35" cy="88.21" r="0.81"/><circle class="cls-1" cx="107.14" cy="88.21" r="0.81"/><circle class="cls-1" cx="113.7" cy="88.21" r="0.81"/><circle class="cls-1" cx="120.25" cy="88.21" r="0.81"/><circle class="cls-1" cx="126.81" cy="88.21" r="0.81"/><circle class="cls-1" cx="80.91" cy="93.92" r="0.81"/><circle class="cls-1" cx="87.47" cy="93.92" r="0.81"/><circle class="cls-1" cx="94.02" cy="93.92" r="0.81"/><circle class="cls-1" cx="100.58" cy="93.92" r="0.81"/><circle class="cls-1" cx="133.37" cy="93.92" r="0.81"/><circle class="cls-1" cx="139.92" cy="93.92" r="0.81"/><circle class="cls-1" cx="146.48" cy="93.92" r="0.81"/><circle class="cls-1" cx="153.04" cy="93.92" r="0.81"/><circle class="cls-1" cx="54.68" cy="93.92" r="0.81"/><circle class="cls-1" cx="61.24" cy="93.92" r="0.81"/><circle class="cls-1" cx="67.79" cy="93.92" r="0.81"/><circle class="cls-1" cx="74.35" cy="93.92" r="0.81"/><circle class="cls-1" cx="107.14" cy="93.92" r="0.81"/><circle class="cls-1" cx="113.7" cy="93.92" r="0.81"/><circle class="cls-1" cx="120.25" cy="93.92" r="0.81"/><circle class="cls-1" cx="126.81" cy="93.92" r="0.81"/><circle class="cls-1" cx="80.91" cy="99.62" r="0.81"/><circle class="cls-1" cx="87.47" cy="99.62" r="0.81"/><circle class="cls-1" cx="94.02" cy="99.62" r="0.81"/><circle class="cls-1" cx="100.58" cy="99.62" r="0.81"/><circle class="cls-1" cx="133.37" cy="99.62" r="0.81"/><circle class="cls-1" cx="139.92" cy="99.62" r="0.81"/><circle class="cls-1" cx="146.48" cy="99.62" r="0.81"/><circle class="cls-1" cx="153.04" cy="99.62" r="0.81"/><circle class="cls-1" cx="54.68" cy="99.62" r="0.81"/><circle class="cls-1" cx="61.24" cy="99.62" r="0.81"/><circle class="cls-1" cx="67.79" cy="99.62" r="0.81"/><circle class="cls-1" cx="74.35" cy="99.62" r="0.81"/><circle class="cls-1" cx="107.14" cy="99.62" r="0.81"/><circle class="cls-1" cx="113.7" cy="99.62" r="0.81"/><circle class="cls-1" cx="120.25" cy="99.62" r="0.81"/><circle class="cls-1" cx="126.81" cy="99.62" r="0.81"/><circle class="cls-1" cx="80.91" cy="105.33" r="0.81"/><circle class="cls-1" cx="87.47" cy="105.33" r="0.81"/><circle class="cls-1" cx="94.02" cy="105.33" r="0.81"/><circle class="cls-1" cx="100.58" cy="105.33" r="0.81"/><circle class="cls-1" cx="133.37" cy="105.33" r="0.81"/><circle class="cls-1" cx="139.92" cy="105.33" r="0.81"/><circle class="cls-1" cx="146.48" cy="105.33" r="0.81"/><circle class="cls-1" cx="153.04" cy="105.33" r="0.81"/><circle class="cls-1" cx="54.68" cy="105.33" r="0.81"/><circle class="cls-1" cx="61.24" cy="105.33" r="0.81"/><circle class="cls-1" cx="67.79" cy="105.33" r="0.81"/><circle class="cls-1" cx="74.35" cy="105.33" r="0.81"/><circle class="cls-1" cx="107.14" cy="105.33" r="0.81"/><circle class="cls-1" cx="113.7" cy="105.33" r="0.81"/><circle class="cls-1" cx="120.25" cy="105.33" r="0.81"/><circle class="cls-1" cx="126.81" cy="105.33" r="0.81"/><circle class="cls-1" cx="80.91" cy="111.03" r="0.81"/><circle class="cls-1" cx="87.47" cy="111.03" r="0.81"/><circle class="cls-1" cx="94.02" cy="111.03" r="0.81"/><circle class="cls-1" cx="100.58" cy="111.03" r="0.81"/><circle class="cls-1" cx="133.37" cy="111.03" r="0.81"/><circle class="cls-1" cx="139.92" cy="111.03" r="0.81"/><circle class="cls-1" cx="146.48" cy="111.03" r="0.81"/><circle class="cls-1" cx="153.04" cy="111.03" r="0.81"/><circle class="cls-1" cx="54.68" cy="111.03" r="0.81"/><circle class="cls-1" cx="61.24" cy="111.03" r="0.81"/><circle class="cls-1" cx="67.79" cy="111.03" r="0.81"/><circle class="cls-1" cx="74.35" cy="111.03" r="0.81"/><circle class="cls-1" cx="107.14" cy="111.03" r="0.81"/><circle class="cls-1" cx="113.7" cy="111.03" r="0.81"/><circle class="cls-1" cx="120.25" cy="111.03" r="0.81"/><circle class="cls-1" cx="126.81" cy="111.03" r="0.81"/><circle class="cls-1" cx="80.91" cy="116.74" r="0.81"/><circle class="cls-1" cx="87.47" cy="116.74" r="0.81"/><circle class="cls-1" cx="94.02" cy="116.74" r="0.81"/><circle class="cls-1" cx="100.58" cy="116.74" r="0.81"/><circle class="cls-1" cx="133.37" cy="116.74" r="0.81"/><circle class="cls-1" cx="139.92" cy="116.74" r="0.81"/><circle class="cls-1" cx="146.48" cy="116.74" r="0.81"/><circle class="cls-1" cx="153.04" cy="116.74" r="0.81"/><circle class="cls-1" cx="54.68" cy="116.74" r="0.81"/><circle class="cls-1" cx="61.24" cy="116.74" r="0.81"/><circle class="cls-1" cx="67.79" cy="116.74" r="0.81"/><circle class="cls-1" cx="74.35" cy="116.74" r="0.81"/><circle class="cls-1" cx="107.14" cy="116.74" r="0.81"/><circle class="cls-1" cx="113.7" cy="116.74" r="0.81"/><circle class="cls-1" cx="120.25" cy="116.74" r="0.81"/><circle class="cls-1" cx="126.81" cy="116.74" r="0.81"/><circle class="cls-1" cx="80.91" cy="122.44" r="0.81"/><circle class="cls-1" cx="87.47" cy="122.44" r="0.81"/><circle class="cls-1" cx="94.02" cy="122.44" r="0.81"/><circle class="cls-1" cx="100.58" cy="122.44" r="0.81"/><circle class="cls-1" cx="133.37" cy="122.44" r="0.81"/><circle class="cls-1" cx="139.92" cy="122.44" r="0.81"/><circle class="cls-1" cx="146.48" cy="122.44" r="0.81"/><circle class="cls-1" cx="153.04" cy="122.44" r="0.81"/><circle class="cls-1" cx="54.68" cy="122.44" r="0.81"/><circle class="cls-1" cx="61.24" cy="122.44" r="0.81"/><circle class="cls-1" cx="67.79" cy="122.44" r="0.81"/><circle class="cls-1" cx="74.35" cy="122.44" r="0.81"/><circle class="cls-1" cx="107.14" cy="122.44" r="0.81"/><circle class="cls-1" cx="113.7" cy="122.44" r="0.81"/><circle class="cls-1" cx="120.25" cy="122.44" r="0.81"/><circle class="cls-1" cx="126.81" cy="122.44" r="0.81"/><path class="cls-2" d="M131.28,105,4.61,128.93A4.6,4.6,0,0,1,0,124.33V28.55A4.6,4.6,0,0,1,4.61,24L131.28,0a4.6,4.6,0,0,1,4.61,4.61v95.77A4.6,4.6,0,0,1,131.28,105Z"/><path class="cls-1" d="M94.41,85.43H41.47a3.84,3.84,0,0,1-3.83-3.83V47.34a3.83,3.83,0,0,1,3.83-3.83H94.41a3.83,3.83,0,0,1,3.84,3.83V81.6A3.84,3.84,0,0,1,94.41,85.43ZM41.47,46.51a.83.83,0,0,0-.83.83V81.6a.84.84,0,0,0,.83.83H94.41a.84.84,0,0,0,.84-.83V47.34a.84.84,0,0,0-.84-.83Z"/><path class="cls-1" d="M67.94,67.14a4.43,4.43,0,0,1-2.55-.81L38.28,47.18A1.5,1.5,0,0,1,40,44.73L67.12,63.88a1.43,1.43,0,0,0,1.65,0L95.88,44.73a1.5,1.5,0,1,1,1.73,2.45L70.5,66.33A4.44,4.44,0,0,1,67.94,67.14Z"/><path class="cls-1" d="M39.72,85a1.5,1.5,0,0,1-1-2.6l22.6-21.18a1.5,1.5,0,1,1,2.05,2.19L40.74,84.6A1.49,1.49,0,0,1,39.72,85Z"/><path class="cls-1" d="M96.46,84.68a1.5,1.5,0,0,1-1-.4L72.91,63.16A1.49,1.49,0,0,1,72.84,61,1.51,1.51,0,0,1,75,61L97.48,82.09a1.49,1.49,0,0,1,.07,2.12A1.53,1.53,0,0,1,96.46,84.68Z"/></g></g></svg>