<svg xmlns="http://www.w3.org/2000/svg" viewBox="0 0 79.05 49.24"><defs><style>.cls-1{fill:#fa991c;}</style></defs><g id="Layer_2" data-name="Layer 2"><g id="Layer_6" data-name="Layer 6"><path class="cls-1" d="M39,47.45A23.73,23.73,0,1,1,62.67,23.72,23.76,23.76,0,0,1,39,47.45ZM39,3A20.73,20.73,0,1,0,59.67,23.72,20.75,20.75,0,0,0,39,3Z"/><path class="cls-1" d="M39,41.34A17.62,17.62,0,1,1,56.57,23.72,17.63,17.63,0,0,1,39,41.34ZM39,9.11A14.62,14.62,0,1,0,53.57,23.72,14.63,14.63,0,0,0,39,9.11Z"/><path class="cls-1" d="M6.33,49.24a1.5,1.5,0,0,1-1.5-1.5v-29a1.5,1.5,0,0,1,3,0v29A1.5,1.5,0,0,1,6.33,49.24Z"/><path class="cls-1" d="M6.93,20.11H5.44A5.45,5.45,0,0,1,0,14.67V6.19a1.5,1.5,0,0,1,3,0v8.48a2.44,2.44,0,0,0,2.44,2.44H6.93a2.44,2.44,0,0,0,2.44-2.44V6.19a1.5,1.5,0,1,1,3,0v8.48A5.45,5.45,0,0,1,6.93,20.11Z"/><path class="cls-1" d="M6.31,20.11a1.49,1.49,0,0,1-1.5-1.49l-.12-11A1.5,1.5,0,0,1,6.17,6.13h0a1.5,1.5,0,0,1,1.5,1.49l.12,11a1.51,1.51,0,0,1-1.49,1.52Z"/><path class="cls-1" d="M71.76,49.24a1.5,1.5,0,0,1-1.5-1.5V20.55a1.5,1.5,0,1,1,3,0V47.74A1.5,1.5,0,0,1,71.76,49.24Z"/><path class="cls-1" d="M71.76,22.06c-4,0-7.28-3.93-7.28-8.77s3.26-8.77,7.28-8.77,7.29,3.94,7.29,8.77S75.78,22.06,71.76,22.06Zm0-14.54c-2.36,0-4.28,2.59-4.28,5.77s1.92,5.77,4.28,5.77,4.29-2.59,4.29-5.77S74.12,7.52,71.76,7.52Z"/></g></g></svg>